Coordinates
version=1
nRows=13
nColumns=36
inDegrees=yes

Units are S.I. units (second, meters, Newtons, ...)
If the header above contains a line with 'inDegrees', this indicates whether rotational values are in degrees (yes) or radians (no).

endheader
time	pelvis_tilt	pelvis_list	pelvis_rotation	pelvis_tx	pelvis_ty	pelvis_tz	hip_flexion_r	hip_adduction_r	hip_rotation_r	knee_angle_r	knee_angle_r_beta	ankle_angle_r	subtalar_angle_r	mtp_angle_r	hip_flexion_l	hip_adduction_l	hip_rotation_l	knee_angle_l	knee_angle_l_beta	ankle_angle_l	subtalar_angle_l	mtp_angle_l	lumbar_extension	lumbar_bending	lumbar_rotation	arm_flex_r	arm_add_r	arm_rot_r	elbow_flex_r	pro_sup_r	arm_flex_l	arm_add_l	arm_rot_l	elbow_flex_l	pro_sup_l
     10.31666670	    -23.92601195	     -2.57398489	     -5.23983879	      0.68417279	      0.68733820	      0.15831726	     79.32363296	     12.12010602	     -9.03089021	     79.78320065	      1.39247954	     27.92793743	     -3.05755324	     -7.49999987	     97.57251393	    -10.48388524	     11.72387023	     46.69096596	      0.81491109	     -0.38436004	     -1.58387712	     -7.49999987	    -21.57871064	      9.40956858	     11.52863904	     62.09261570	     -7.27366864	     72.62234469	    122.85716518	    108.05270413	     65.44954928	      3.83203414	     59.30216125	    116.42153214	    110.86242512
     10.33333330	    -24.41336593	     -2.43608051	     -5.82907069	      0.69073190	      0.68722949	      0.15466860	     80.15316619	     12.20796921	     -9.20608405	     80.22531439	      1.40019588	     28.45369925	     -2.14931695	     -7.49999987	     98.36031711	    -10.98730068	     11.68109646	     47.24268605	      0.82454042	     -0.71846419	     -0.94469297	     -7.49999987	    -21.52299530	      9.40628663	     12.11281772	     61.07435217	     -8.09806916	     72.50395598	    122.75856297	    108.02881740	     64.41744380	      3.89621009	     59.32449518	    114.78595053	    111.02792100
     10.35000000	    -24.70605339	     -2.16199371	     -6.26378245	      0.69020743	      0.68383208	      0.14914902	     80.77457732	     11.78039154	     -9.29220653	     80.65918196	      1.40776830	     28.43012749	     -1.99438551	     -7.49999987	     98.83716158	    -11.22511366	     11.55058001	     47.60544247	      0.83087171	     -1.29387389	     -0.45331928	     -7.49999987	    -22.02204448	      9.60185815	     12.17783409	     61.38948872	     -8.77418786	     71.81573274	    122.49965419	    108.00665090	     64.18212212	      3.90990702	     59.44896547	    114.73600440	    111.09073468
     10.36666670	    -25.36674173	     -1.96181998	     -6.88803412	      0.68929356	      0.67893068	      0.14957895	     81.58741374	     11.58374451	     -9.49443106	     80.86427973	      1.41134793	     28.83818810	     -0.97553263	     -7.49999987	     99.65514608	    -11.75927642	     11.62285726	     47.66993951	      0.83199740	     -1.15569442	      0.36397103	     -7.49999987	    -21.80551370	      9.57275666	     13.19346272	     60.66986004	     -9.67263696	     71.45289407	    123.96023665	    108.12388632	     64.34659706	      4.52216815	     59.76440212	    114.68295802	    111.93564557
     10.38333330	    -25.66122551	     -1.96952728	     -7.33188253	      0.68967783	      0.67536511	      0.15035213	     81.97234047	     11.42063266	     -9.80522434	     81.04119231	      1.41443564	     29.08470657	     -0.31880796	     -7.49999987	    100.13179233	    -12.13284323	     11.88637342	     47.57953594	      0.83041956	     -0.95843647	      1.13019935	     -7.49999987	    -21.97800451	     10.01979923	     13.61882512	     60.69907603	     -9.43602007	     71.35946584	    124.87697856	    107.86520630	     64.46027033	      4.64409174	     59.42357231	    115.56239750	    111.87489913
     10.40000000	    -25.77223948	     -1.78301109	     -7.56332368	      0.70220490	      0.67444056	      0.14281736	     81.99698169	     11.13488963	     -9.64981646	     81.43146419	      1.42124716	     29.58601187	      0.30302730	     -7.49999987	    100.25630502	    -12.34629572	     11.75743839	     47.42642237	      0.82774722	     -0.01046894	      1.93144831	     -7.49999987	    -22.20819564	     10.79040024	     13.12323597	     59.55143742	     -9.87306567	     71.92403897	    124.53304642	    108.03946726	     63.63020642	      4.32857449	     59.48698476	    115.66736520	    112.12099035
     10.41666670	    -26.28387455	     -1.52839084	     -7.71418023	      0.68746479	      0.67364033	      0.14476545	     82.72162033	     10.69426979	     -9.58086199	     81.81730332	      1.42798133	     29.58287254	      0.37629830	     -7.49999987	    100.63264594	    -12.35183810	     11.72369953	     46.91110930	      0.81875331	      0.23930680	      2.12016407	     -7.49999987	    -22.57549661	     11.31070285	     13.62149648	     60.55523184	    -10.43341019	     71.61257325	    123.99376725	    108.05268616	     64.71248069	      3.57609181	     58.76093701	    114.94351883	    112.12768142
     10.43333330	    -26.54064688	     -1.59653982	     -8.04937655	      0.69465189	      0.66632543	      0.14166578	     82.72128111	     10.46314200	     -9.91505251	     82.10268552	      1.43296219	     30.52011166	      1.62438510	     -7.49999987	    100.98078758	    -12.60559358	     12.05737674	     46.93097108	      0.81909997	      0.86608385	      2.71941792	     -7.49999987	    -22.34902776	     12.11510497	     13.59737642	     62.19284038	    -10.13528361	     73.68936510	    123.38221980	    106.73432114	     65.52694719	      3.32851413	     59.73735246	    114.09641363	    111.37456177
     10.45000000	    -27.32550239	     -1.32486234	     -8.35154140	      0.69382502	      0.65582070	      0.13647620	     83.56984352	      9.96569816	    -10.14261426	     82.72076662	      1.44374974	     31.17210604	      2.44291237	     -7.49999987	    101.95892443	    -12.73677366	     12.28752290	     47.11136854	      0.82224850	      1.39246243	      3.16045977	     -7.49999987	    -21.39100878	     12.71784396	     13.24727833	     62.84433359	     -9.83351571	     73.21649862	    123.35844428	    107.79097343	     66.06861233	      2.96385410	     60.31702733	    114.82177552	    112.82837440
     10.46666670	    -27.82574356	     -0.95593427	     -8.49747898	      0.68506669	      0.65390622	      0.13449990	     84.31071768	      9.36375155	    -10.16761411	     83.33620838	      1.45449122	     31.31567081	      2.59403266	     -7.49999987	    102.63308513	    -12.69924062	     12.37822307	     47.23880444	      0.82447267	      1.54028837	      3.33724953	     -7.49999987	    -21.08154059	     13.07490936	     13.43804561	     64.68267285	    -10.20837115	     72.39760025	    123.04627181	    107.77573284	     66.74101569	      3.22828590	     60.41734594	    114.99133171	    112.83728117
     10.48333330	    -28.71763747	     -0.73733789	     -8.55124315	      0.67827415	      0.65103036	      0.13279776	     85.58549557	      8.64129194	    -10.51306558	     83.85848220	      1.46360662	     31.56899960	      3.56387829	     -7.49999987	    103.72387443	    -12.53067781	     12.69454497	     47.36105848	      0.82660641	      1.45853830	      3.65867270	     -7.49999987	    -20.65142811	     13.59535802	     13.76513575	     67.09698727	    -10.85838035	     73.28604145	    122.39656190	    107.83677483	     68.20750241	      3.17878822	     62.43553309	    114.92324590	    112.91761104
     10.50000000	    -29.12975995	     -0.58962738	     -8.54862699	      0.67901408	      0.64760697	      0.13318927	     86.33992085	      8.19122147	    -10.71831789	     84.24068237	      1.47027727	     31.52246309	      3.75726227	     -7.49999987	    104.28062321	    -12.48488403	     12.83276364	     47.43386735	      0.82787716	      1.25385054	      3.75136841	     -7.49999987	    -20.39480736	     13.90649043	     13.81313258	     68.24936919	    -10.39117367	     73.26753442	    122.02875982	    107.12493507	     69.06685785	      3.19689560	     62.19208063	    114.93002495	    112.56153872
     10.51666670	    -29.54811758	     -0.45413448	     -8.46929845	      0.67910488	      0.64688298	      0.13353198	     86.84410140	      7.89902075	    -10.79594940	     84.33810909	      1.47197769	     31.55758196	      3.69961756	     -7.49999987	    104.75009877	    -12.38330597	     12.95809948	     47.65349879	      0.83171045	      1.08468863	      3.98648469	     -7.49999987	    -20.36084220	     14.29128370	     13.65890980	     69.12817579	    -10.44484335	     70.17727151	    120.29622653	    106.37003127	     69.55313794	      2.81670379	     61.18799177	    115.49745269	    112.18328541
